<svg width="0" height="0" class="hidden">
    <symbol xmlns="http://www.w3.org/2000/svg" viewBox="-42 0 512 512.001" id="account">
        <path
            d="M210.352 246.633c33.882 0 63.218-12.153 87.195-36.13 23.969-23.972 36.125-53.304 36.125-87.19 0-33.876-12.152-63.211-36.129-87.192C273.566 12.152 244.23 0 210.352 0c-33.887 0-63.22 12.152-87.192 36.125s-36.129 53.309-36.129 87.188c0 33.886 12.156 63.222 36.13 87.195 23.98 23.969 53.316 36.125 87.19 36.125zM144.379 57.34c18.394-18.395 39.973-27.336 65.973-27.336 25.996 0 47.578 8.941 65.976 27.336 18.395 18.398 27.34 39.98 27.34 65.972 0 26-8.945 47.579-27.34 65.977-18.398 18.399-39.98 27.34-65.976 27.34-25.993 0-47.57-8.945-65.973-27.34-18.399-18.394-27.344-39.976-27.344-65.976 0-25.993 8.945-47.575 27.344-65.973zm281.75 336.363c-.692-9.976-2.09-20.86-4.149-32.351-2.078-11.579-4.753-22.524-7.957-32.528-3.312-10.34-7.808-20.55-13.375-30.336-5.77-10.156-12.55-19-20.16-26.277-7.957-7.613-17.699-13.734-28.965-18.2-11.226-4.44-23.668-6.69-36.976-6.69-5.227 0-10.281 2.144-20.043 8.5a2711.03 2711.03 0 01-20.879 13.46c-6.707 4.274-15.793 8.278-27.016 11.903-10.949 3.543-22.066 5.34-33.043 5.34-10.968 0-22.086-1.797-33.043-5.34-11.21-3.622-20.3-7.625-26.996-11.899a2853.13 2853.13 0 01-20.898-13.469c-9.754-6.355-14.809-8.5-20.035-8.5-13.313 0-25.75 2.254-36.973 6.7-11.258 4.457-21.004 10.578-28.969 18.199-7.609 7.281-14.39 16.12-20.156 26.273-5.558 9.785-10.058 19.992-13.371 30.34-3.2 10.004-5.875 20.945-7.953 32.524-2.063 11.476-3.457 22.363-4.149 32.363C.343 403.492 0 413.668 0 423.949c0 26.727 8.496 48.363 25.25 64.32C41.797 504.017 63.688 512 90.316 512h246.532c26.62 0 48.511-7.984 65.062-23.73 16.758-15.946 25.254-37.59 25.254-64.325-.004-10.316-.351-20.492-1.035-30.242zm-44.906 72.828c-10.934 10.406-25.45 15.465-44.38 15.465H90.317c-18.933 0-33.449-5.059-44.379-15.46-10.722-10.208-15.933-24.141-15.933-42.587 0-9.594.316-19.066.95-28.16.616-8.922 1.878-18.723 3.75-29.137 1.847-10.285 4.198-19.937 6.995-28.675 2.684-8.38 6.344-16.676 10.883-24.668 4.332-7.618 9.316-14.153 14.816-19.418 5.145-4.926 11.63-8.957 19.27-11.98 7.066-2.798 15.008-4.329 23.629-4.56 1.05.56 2.922 1.626 5.953 3.602 6.168 4.02 13.277 8.606 21.137 13.625 8.86 5.649 20.273 10.75 33.91 15.152 13.941 4.508 28.16 6.797 42.273 6.797 14.114 0 28.336-2.289 42.27-6.793 13.648-4.41 25.058-9.507 33.93-15.164 8.043-5.14 14.953-9.593 21.12-13.617 3.032-1.973 4.903-3.043 5.954-3.601 8.625.23 16.566 1.761 23.636 4.558 7.637 3.024 14.122 7.059 19.266 11.98 5.5 5.262 10.484 11.798 14.816 19.423 4.543 7.988 8.208 16.289 10.887 24.66 2.801 8.75 5.156 18.398 7 28.675 1.867 10.434 3.133 20.239 3.75 29.145v.008c.637 9.058.957 18.527.961 28.148-.004 18.45-5.215 32.38-15.937 42.582zm0 0">
        </path>
    </symbol>
    <symbol xmlns="http://www.w3.org/2000/svg" viewBox="0 0 489 489" id="bag">
        <path
            d="M440.1 422.7l-28-315.3c-.6-7-6.5-12.3-13.4-12.3h-57.6C340.3 42.5 297.3 0 244.5 0s-95.8 42.5-96.6 95.1H90.3c-7 0-12.8 5.3-13.4 12.3l-28 315.3c0 .4-.1.8-.1 1.2 0 35.9 32.9 65.1 73.4 65.1h244.6c40.5 0 73.4-29.2 73.4-65.1 0-.4 0-.8-.1-1.2zM244.5 27c37.9 0 68.8 30.4 69.6 68.1H174.9c.8-37.7 31.7-68.1 69.6-68.1zm122.3 435H122.2c-25.4 0-46-16.8-46.4-37.5l26.8-302.3h45.2v41c0 7.5 6 13.5 13.5 13.5s13.5-6 13.5-13.5v-41h139.3v41c0 7.5 6 13.5 13.5 13.5s13.5-6 13.5-13.5v-41h45.2l26.9 302.3c-.4 20.7-21.1 37.5-46.4 37.5z">
        </path>
    </symbol>
    <symbol xmlns="http://www.w3.org/2000/svg" viewBox="0 0 496.096 496.096" id="close">
        <path
            d="M259.41 247.998L493.754 13.654a8 8 0 000-11.312 8 8 0 00-11.312 0L248.098 236.686 13.754 2.342A8 8 0 002.442 13.654l234.344 234.344L2.442 482.342a8 8 0 00-.196 11.312 8 8 0 0011.508 0L248.098 259.31l234.344 234.344a8 8 0 0011.312-.196 8 8 0 000-11.116L259.41 247.998z">
        </path>
    </symbol>
    <symbol xmlns="http://www.w3.org/2000/svg" viewBox="0 0 300.906 300.906" id="filter">
        <path
            d="M288.953 0h-277c-5.522 0-10 4.478-10 10v49.531c0 5.522 4.478 10 10 10h12.372l91.378 107.397v113.978a10 10 0 0015.547 8.32l49.5-33a9.999 9.999 0 004.453-8.32v-80.978l91.378-107.397h12.372c5.522 0 10-4.478 10-10V10c0-5.522-4.477-10-10-10zM167.587 166.77a9.999 9.999 0 00-2.384 6.48v79.305l-29.5 19.666V173.25a9.997 9.997 0 00-2.384-6.48L50.585 69.531h199.736l-82.734 97.239zM278.953 49.531h-257V20h257v29.531z">
        </path>
    </symbol>
    <symbol xmlns="http://www.w3.org/2000/svg" viewBox="0 0 443.52 443.52" id="larr">
        <path
            d="M143.492 221.863L336.226 29.129c6.663-6.664 6.663-17.468 0-24.132-6.665-6.662-17.468-6.662-24.132 0l-204.8 204.8c-6.662 6.664-6.662 17.468 0 24.132l204.8 204.8c6.78 6.548 17.584 6.36 24.132-.42 6.387-6.614 6.387-17.099 0-23.712L143.492 221.863z">
        </path>
    </symbol>
    <symbol xmlns="http://www.w3.org/2000/svg" viewBox="0 0 511.999 511.999" id="location">
        <path
            d="M409.124 63.426C368.224 22.525 313.843 0 256.001 0S143.777 22.525 102.877 63.426c-40.901 40.902-63.426 95.282-63.426 153.123 0 117.012 110.638 214.337 170.077 266.623 8.26 7.266 15.393 13.541 21.076 18.849 7.12 6.651 16.259 9.977 25.396 9.977 9.139 0 18.276-3.326 25.397-9.977 5.683-5.309 12.816-11.583 21.076-18.849 59.439-52.287 170.077-149.611 170.077-266.623-.001-57.841-22.525-112.221-63.426-153.123zM282.663 460.654c-8.441 7.425-15.73 13.838-21.74 19.451-2.761 2.577-7.085 2.578-9.847 0-6.009-5.615-13.299-12.027-21.74-19.452-55.88-49.155-159.895-140.654-159.895-244.103 0-102.868 83.689-186.557 186.558-186.557 102.868 0 186.557 83.689 186.557 186.557.001 103.449-104.013 194.948-159.893 244.104z">
        </path>
        <path
            d="M256.001 112.938c-52.621 0-95.431 42.809-95.431 95.43s42.81 95.43 95.431 95.43 95.43-42.809 95.43-95.43-42.809-95.43-95.43-95.43zm0 160.867c-36.083 0-65.439-29.356-65.439-65.438s29.356-65.438 65.439-65.438 65.438 29.356 65.438 65.438-29.355 65.438-65.438 65.438z">
        </path>
    </symbol>
    <symbol xmlns="http://www.w3.org/2000/svg" viewBox="0 0 121.805 121.804" id="minus">
        <path
            d="M7.308 68.211h107.188a7.309 7.309 0 007.309-7.31 7.308 7.308 0 00-7.309-7.309H7.308a7.31 7.31 0 000 14.619z">
        </path>
    </symbol>
    <symbol xmlns="http://www.w3.org/2000/svg" viewBox="0 0 512 512" id="paper">
        <path
            d="M498.791 161.127c-17.545-17.546-46.094-17.545-63.645.004l-45.128 45.166V87.426c0-12.02-4.681-23.32-13.181-31.819L334.412 13.18C325.913 4.68 314.612 0 302.592 0H45.018c-24.813 0-45 20.187-45 45v422c0 24.813 20.187 45 45 45h300c24.813 0 45-20.187 45-45V333.631L498.79 224.767c17.587-17.586 17.591-46.052.001-63.64zM300.019 30c2.834 0 8.295-.491 13.18 4.393l42.426 42.427c4.76 4.761 4.394 9.978 4.394 13.18h-60V30zm59.999 437c0 8.271-6.728 15-15 15h-300c-8.271 0-15-6.729-15-15V45c0-8.271 6.729-15 15-15h225v75c0 8.284 6.716 15 15 15h75v116.323l-44.256 44.293-21.203 21.204a15 15 0 00-3.624 5.863l-21.214 63.64a14.999 14.999 0 0018.974 18.974l63.64-21.213a14.988 14.988 0 005.863-3.624l1.82-1.82V467zm-33.64-154.573l21.213 21.213-8.103 8.103-31.819 10.606 10.606-31.82 8.103-8.102zm42.422-.005l-21.213-21.213 72.105-72.166 21.213 21.213-72.105 72.166zm108.773-108.864l-15.463 15.476-21.213-21.213 15.468-15.481c5.852-5.849 15.366-5.848 21.214 0 5.847 5.85 5.878 15.333-.006 21.218z">
        </path>
        <path
            d="M285.018 150h-210c-8.284 0-15 6.716-15 15s6.716 15 15 15h210c8.284 0 15-6.716 15-15s-6.716-15-15-15zm-60 60h-150c-8.284 0-15 6.716-15 15s6.716 15 15 15h150c8.284 0 15-6.716 15-15s-6.716-15-15-15zm0 60h-150c-8.284 0-15 6.716-15 15s6.716 15 15 15h150c8.284 0 15-6.716 15-15s-6.716-15-15-15zm0 60h-150c-8.284 0-15 6.716-15 15s6.716 15 15 15h150c8.284 0 15-6.716 15-15s-6.716-15-15-15zm60 92h-90c-8.284 0-15 6.716-15 15s6.716 15 15 15h90c8.284 0 15-6.716 15-15s-6.716-15-15-15z">
        </path>
    </symbol>
    <symbol xmlns="http://www.w3.org/2000/svg" viewBox="0 0 426.667 426.667" id="plus">
        <path
            d="M405.332 192H234.668V21.332C234.668 9.559 225.109 0 213.332 0 201.559 0 192 9.559 192 21.332V192H21.332C9.559 192 0 201.559 0 213.332c0 11.777 9.559 21.336 21.332 21.336H192v170.664c0 11.777 9.559 21.336 21.332 21.336 11.777 0 21.336-9.559 21.336-21.336V234.668h170.664c11.777 0 21.336-9.559 21.336-21.336 0-11.773-9.559-21.332-21.336-21.332zm0 0">
        </path>
    </symbol>
    <symbol xmlns="http://www.w3.org/2000/svg" viewBox="0 0 512.002 512.002" id="rarr">
        <path
            d="M388.425 241.951L151.609 5.79c-7.759-7.733-20.321-7.72-28.067.04-7.74 7.759-7.72 20.328.04 28.067l222.72 222.105-222.728 222.104c-7.759 7.74-7.779 20.301-.04 28.061a19.8 19.8 0 0014.057 5.835 19.79 19.79 0 0014.017-5.795l236.817-236.155c3.737-3.718 5.834-8.778 5.834-14.05s-2.103-10.326-5.834-14.051z">
        </path>
    </symbol>
    <symbol xmlns="http://www.w3.org/2000/svg" viewBox="0 0 192.904 192.904" id="search">
        <path
            d="M190.707 180.101l-47.078-47.077c11.702-14.072 18.752-32.142 18.752-51.831C162.381 36.423 125.959 0 81.191 0 36.422 0 0 36.423 0 81.193c0 44.767 36.422 81.187 81.191 81.187 19.688 0 37.759-7.049 51.831-18.751l47.079 47.078a7.474 7.474 0 005.303 2.197 7.498 7.498 0 005.303-12.803zM15 81.193C15 44.694 44.693 15 81.191 15c36.497 0 66.189 29.694 66.189 66.193 0 36.496-29.692 66.187-66.189 66.187C44.693 147.38 15 117.689 15 81.193z">
        </path>
    </symbol>
    <symbol xmlns="http://www.w3.org/2000/svg" viewBox="0 0 512 512" id="shop">
        <path
            d="M511.25 169.527l-.344-1.922c-.062-.297-.094-.594-.156-.883l-35.906-86.719V37.34H36.562v42.664L1.25 166.715c-.078.344-.125.688-.188 1.023l-.328 1.789A61.742 61.742 0 000 179.051c0 23.188 12.938 43.344 32 53.648V474.66h448V232.699c19.047-10.305 32-30.461 32-53.648 0-3.242-.266-6.422-.75-9.524zm-24.109-4.187h-78.375l-9.422-63.336h62l25.797 63.336zM57.906 58.668h395.609v21.336H57.906V58.668zm332.469 128l1.156 7.742-6.312 8.398c-7.562 10.078-19.125 15.859-31.703 15.859s-24.141-5.781-31.703-15.859l-6.438-8.578-.375-7.562h75.375zm-76.422-21.328l-3.109-63.336h66.922l9.438 63.336h-73.251zm-20.312 21.327l.375 7.735-6.328 8.406c-7.562 10.078-19.125 15.859-31.688 15.859-12.594 0-24.141-5.781-31.719-15.859l-6.469-8.633.375-7.508h75.454zm-74.375-21.327l3.203-63.336H289.5l3.094 63.336h-73.328zm-94.36 0l9.312-63.336h66.906l-3.219 63.336h-72.999zm71.906 21.328l-.391 7.82-6.25 8.32c-7.578 10.078-19.125 15.859-31.703 15.859s-24.125-5.781-31.703-15.859l-6.156-8.195 1.172-7.945h75.031zM50.641 102.004h62.016l-9.312 63.336h-78.5l25.796-63.336zm-28.579 84.664h78.156l-1.672 8.289-5.891 7.852c-7.578 10.078-19.125 15.859-31.719 15.859-19.233 0-35.311-13.781-38.874-32zM416 453.348h-85.344V378.66h10.672c5.891 0 10.672-4.766 10.672-10.656s-4.781-10.656-10.672-10.656h-10.672V282.66H416v170.688zm42.658 0h-21.33v-192h-128v192h-256v-213.82c2.484.312 5.047.477 7.609.477 19.938 0 37.656-9.578 48.766-24.383 11.125 14.805 28.828 24.383 48.766 24.383s37.641-9.578 48.766-24.383c11.109 14.805 28.828 24.383 48.766 24.383s37.625-9.578 48.75-24.383c11.125 14.805 28.828 24.383 48.766 24.383s37.641-9.578 48.766-24.383c11.125 14.805 28.812 24.383 48.75 24.383a61.19 61.19 0 007.625-.477v213.82zm-7.627-234.68c-12.562 0-24.125-5.781-31.688-15.859l-6.203-8.234-1.203-7.906h77.969c-3.562 18.218-19.625 31.999-38.875 31.999z">
        </path>
        <path d="M74.656 261.348V410.66H288V261.348H74.656zm192 128H96V282.66h170.656v106.688z"></path>
        <path
            d="M245.25 336.004a10.59 10.59 0 00-7.547 3.125l-21.328 21.344a10.575 10.575 0 00-3.125 7.531c0 5.891 4.781 10.656 10.656 10.656a10.59 10.59 0 007.547-3.125l21.328-21.312a10.648 10.648 0 003.125-7.562c0-5.876-4.765-10.657-10.656-10.657zm0-42.656a10.59 10.59 0 00-7.547 3.125l-64 63.984a10.678 10.678 0 00-3.125 7.547c0 5.891 4.781 10.656 10.672 10.656 2.938 0 5.609-1.188 7.531-3.125l64-63.984a10.611 10.611 0 003.125-7.547 10.649 10.649 0 00-10.656-10.656z">
        </path>
    </symbol>
    <symbol xmlns="http://www.w3.org/2000/svg" viewBox="0 0 512 512" id="tick">
        <path
            d="M504.502 75.496c-9.997-9.998-26.205-9.998-36.204 0L161.594 382.203 43.702 264.311c-9.997-9.998-26.205-9.997-36.204 0-9.998 9.997-9.998 26.205 0 36.203l135.994 135.992c9.994 9.997 26.214 9.99 36.204 0L504.502 111.7c9.998-9.997 9.997-26.206 0-36.204z">
        </path>
    </symbol>
</svg>