<svg width="0" height="0" class="hidden">
    <symbol xmlns="http://www.w3.org/2000/svg" viewBox="0 0 400 300" id="happy">
        <ellipse cx="204.91" cy="268.58" rx="98.64" ry="10.19" fill="#e6e6e6" opacity=".45"></ellipse>
        <path
            d="M172 164.43s-30.72 14.47-26.95 27 22.95 9.14 22.95 9.14m-9.31-83.77s-29.29-25.41-38.9-61.95m122.65 81.78s30.76-.06 49.58-3.82 14.36-46.66 14.36-46.66"
            fill="none" stroke="#24285b" stroke-linecap="round" stroke-linejoin="round" stroke-width="8"></path>
        <path
            d="M127 51.16s11.39-5.68 7.69-11.66-8.79-3.85-8.79-3.85-.53-14.35-11.9-9.95-11.4 21.11-4.51 28.42S127 51.16 127 51.16z"
            fill="#ffd200"></path>
        <path d="M212.21 182.74s-2.77 31.65-15.59 50.19" fill="none" stroke="#24285b" stroke-linecap="round"
            stroke-linejoin="round" stroke-width="8"></path>
        <path fill="#ffd200" d="M215.2 216.33l-20.03-6.76-12.9 38.21 25.2 21.72-3.13-28.15 10.86-25.02z"></path>
        <circle cx="202.01" cy="122.14" r="62.21" fill="#DEDEDE"></circle>
        <path d="M254 88.2a62.2 62.2 0 01-110.84 54.5A62.21 62.21 0 10254 88.2z" opacity=".09"></path>
        <path d="M231.89 140.49s-5.53 26.08-37.1 21.51S166 129 166 129z" fill="#24285b"></path>
        <ellipse cx="169.55" cy="120.64" rx="4.76" ry="9" transform="rotate(-81.72 169.561 120.64)" fill="#fff"
            opacity=".36"></ellipse>
        <ellipse cx="234.34" cy="130.06" rx="4.76" ry="9" transform="rotate(-81.72 234.342 130.06)" fill="#fff"
            opacity=".36"></ellipse>
        <path d="M113.1 67.3s28.9-1.92 23.68-12.12-18.21-2.92-26.38-1.31-8.33 12.96 2.7 13.43z" fill="#ffd200"></path>
        <path d="M113.1 67.3s28.9-1.92 23.68-12.12-18.21-2.92-26.38-1.31-8.33 12.96 2.7 13.43z" fill="#fff"
            opacity=".44"></path>
        <path
            d="M298.47 86s-12.25-3.44-9.73-10 7.92-5.42 7.92-5.42-2.16-14.2 9.87-12 15.14 18.61 9.73 27.08-17.79.34-17.79.34z"
            fill="#ffd200"></path>
        <path d="M315.15 99.24s-28.75 3.51-25.53-7.49 17.35-6.27 25.67-6.21 10.61 11.17-.14 13.7z" fill="#ffd200">
        </path>
        <path d="M315.15 99.24s-28.75 3.51-25.53-7.49 17.35-6.27 25.67-6.21 10.61 11.17-.14 13.7z" fill="#fff"
            opacity=".44"></path>
        <path d="M261.93 255.83s-9.64-2.64-11.74-11.61c0 0 14.94-3 15.37 12.4z" fill="#68e1fd" opacity=".58"></path>
        <path d="M263.11 254.87s-6.73-10.65-.8-20.61c0 0 11.36 7.21 6.31 20.63z" fill="#68e1fd" opacity=".73"></path>
        <path d="M264.85 254.88s3.56-11.25 14.32-13.38c0 0 2 7.3-7 13.41z" fill="#68e1fd"></path>
        <path fill="#24285b" d="M257.86 254.62l1.95 13.38 12.31.05 1.82-13.36-16.08-.07z"></path>
        <path d="M177.44 110.26s3-20.72 11.39-19.76 5 22.15 5 22.15m17.9 2.6s3-20.72 11.39-19.76 5 22.15 5 22.15"
            fill="none" stroke="#24285b" stroke-linecap="round" stroke-linejoin="round" stroke-width="3"></path>
        <path d="M151.15 183.76l-12.45 17.69s17.44 6.72 28.13 10.49l5.62 20.42 10.69-34.49s-17.91-2.87-31.99-14.11z"
            fill="#ffd200"></path>
    </symbol>
    <symbol xmlns="http://www.w3.org/2000/svg" viewBox="0 0 400 300" id="sad">
        <path d="M286.63 221.35s-3.49-7.46 1.1-10.18 11.83 2.21 10 6a8.27 8.27 0 01-6 4.22z" fill="#dedede"
            opacity=".73"></path>
        <path d="M253.94 125.26s17 26.08 0 76.89M144.16 141s-20.43 24-11.75 36 30.46 1.6 37.57-21.63" fill="none"
            stroke="#24285b" stroke-linecap="round" stroke-linejoin="round" stroke-width="8"></path>
        <path d="M137.69 135.16s-8.48 1.35-7.52 7.74 10.89 14.66 17.82 12 3.32-13.9 3.32-13.9z" fill="#ffd200"></path>
        <path d="M137.69 135.16s-8.48 1.35-7.52 7.74 10.89 14.66 17.82 12 3.32-13.9 3.32-13.9z" fill="#fff"
            opacity=".44"></path>
        <path
            d="M172.51 82.61a10.12 10.12 0 00-10.13-10.13 9.87 9.87 0 00-1.63.14 13.63 13.63 0 00-12-7.19h-.5a16.38 16.38 0 00.5-3.92 16.21 16.21 0 10-32.42 0 16.38 16.38 0 00.5 3.92h-.5a13.66 13.66 0 000 27.31h47.37v-.1a10.11 10.11 0 008.81-10.03zM251 61.47a7.55 7.55 0 017.55-7.55 6.89 6.89 0 011.21.11 10.18 10.18 0 019-5.36h.37a12.31 12.31 0 01-.37-2.93 12.09 12.09 0 1124.17 0 11.83 11.83 0 01-.38 2.93h.38a10.18 10.18 0 010 20.36h-35.41V69a7.55 7.55 0 01-6.52-7.53z"
            fill="#efefef"></path>
        <ellipse cx="210.19" cy="235.87" rx="119.13" ry="12.31" fill="#e6e6e6" opacity=".45"></ellipse>
        <path d="M225.09 164.05s.59 30.87-5.63 52.54" fill="none" stroke="#24285b" stroke-linecap="round"
            stroke-linejoin="round" stroke-width="8"></path>
        <path fill="#ffd200" d="M231.78 194.92h-21.14v40.33h40.31l-21.46-13.16 2.29-27.17z"></path>
        <path d="M192.67 164.05s-6.22 30.87 0 52.54" fill="none" stroke="#24285b" stroke-linecap="round"
            stroke-linejoin="round" stroke-width="8"></path>
        <circle cx="204.61" cy="114.83" r="62.21" fill="#dedede"></circle>
        <path d="M242.19 65.37A62.2 62.2 0 01156.13 154a62.21 62.21 0 1086.06-88.6z" opacity=".09"></path>
        <ellipse cx="183.53" cy="103.95" rx="6" ry="13.24" transform="rotate(-11.37 183.616 104.003)" fill="#24285b">
        </ellipse>
        <ellipse cx="219.46" cy="96.72" rx="6" ry="13.24" transform="rotate(-11.37 219.539 96.775)" fill="#24285b">
        </ellipse>
        <path d="M241.49 146.54s-6.71-24-33.76-17.7S184.44 158 184.44 158" fill="none" stroke="#24285b"
            stroke-linecap="round" stroke-linejoin="round" stroke-width="3"></path>
        <ellipse cx="173.54" cy="124.32" rx="9" ry="4.76" transform="rotate(-11.37 173.626 124.363)" fill="#fff"
            opacity=".36"></ellipse>
        <ellipse cx="237.72" cy="111.41" rx="9" ry="4.76" transform="rotate(-11.37 237.812 111.427)" fill="#fff"
            opacity=".36"></ellipse>
        <path fill="#ffd200"
            d="M179.73 192.82l20.86 3.49-6.66 39.78-39.75-6.65 23.33-9.44 2.22-27.18zm70.68-3.62s-12.7.88-11.56 7.82 6.64 6.93 6.64 6.93-5 13.46 7.22 13.77 18.62-15.14 15-24.54-17.3-3.98-17.3-3.98z">
        </path>
        <path d="M269.44 179.61s-27.43-9.29-26.51 2.14 15.7 9.66 23.86 11.3 12.66-8.78 2.65-13.44z" fill="#ffd200">
        </path>
        <path d="M269.44 179.61s-27.43-9.29-26.51 2.14 15.7 9.66 23.86 11.3 12.66-8.78 2.65-13.44z" fill="#fff"
            opacity=".44"></path>
        <path fill="#24285b" d="M282.1 221.35l1.96 13.38 12.31.05 1.82-13.36-16.09-.07z"></path>
        <path d="M174.2 96.72a17.86 17.86 0 008.38-12.44m30.05-5.73a24.65 24.65 0 0013.66 9.36" fill="none"
            stroke="#24285b" stroke-linecap="round" stroke-linejoin="round" stroke-width="3"></path>
        <path d="M137.8 122.57s-4.62-27.91 8.29-24c8.19 2.5.27 16.46 3 24s8.66 19.2 2.81 23.44-16.58 3.57-14.1-23.44z"
            fill="#ffd200"></path>
        <path d="M290.14 221.39s-.28-6.3 5.59-6.73 11.15 9.36 6.64 15.23l-4.6-8.34z" fill="#dedede"></path>
        <path d="M290.14 221.39s-1.83-7.44-8-6.74-8.58 8.86-5.18 14.22l5.18-7.52z" fill="#dedede" opacity=".58"></path>
    </symbol>
</svg>